<?xml version="1.0" encoding="UTF-8" standalone="no"?>
<svg
   id="svg544531"
   viewBox="0 0 476.23163 51.120003"
   height="51.120003"
   width="476.23163"
   version="1.1"
   sodipodi:docname="logo.svg"
   inkscape:version="1.2.2 (732a01da63, 2022-12-09)"
   xmlns:inkscape="http://www.inkscape.org/namespaces/inkscape"
   xmlns:sodipodi="http://sodipodi.sourceforge.net/DTD/sodipodi-0.dtd"
   xmlns:xlink="http://www.w3.org/1999/xlink"
   xmlns="http://www.w3.org/2000/svg"
   xmlns:svg="http://www.w3.org/2000/svg"
   xmlns:rdf="http://www.w3.org/1999/02/22-rdf-syntax-ns#"
   xmlns:cc="http://creativecommons.org/ns#"
   xmlns:dc="http://purl.org/dc/elements/1.1/">
  <sodipodi:namedview
     id="namedview109"
     pagecolor="#ffffff"
     bordercolor="#000000"
     borderopacity="0.25"
     inkscape:showpageshadow="2"
     inkscape:pageopacity="0.0"
     inkscape:pagecheckerboard="0"
     inkscape:deskcolor="#d1d1d1"
     showgrid="false"
     inkscape:zoom="1.0898438"
     inkscape:cx="238.56631"
     inkscape:cy="25.691756"
     inkscape:window-width="1920"
     inkscape:window-height="1017"
     inkscape:window-x="-8"
     inkscape:window-y="-8"
     inkscape:window-maximized="1"
     inkscape:current-layer="svg544531" />
  <metadata
     id="metadata544537">
    <rdf:rdf>
      <cc:work
         rdf:about="">
        <dc:format>image/svg+xml</dc:format>
        <dc:type
           rdf:resource="http://purl.org/dc/dcmitype/StillImage" />
      </cc:work>
    </rdf:rdf>
  </metadata>
  <defs
     id="defs544535" />
  <linearGradient
     spreadMethod="pad"
     y2="0.30000001"
     x2="-0.1"
     y1="1.2"
     x1="0.30000001"
     id="3d_gradient2-logo-18f0ddbe-1232-4063-9225-2203434fd4e0">
    <stop
       id="stop544512"
       stop-opacity="1"
       stop-color="#ffffff"
       offset="0%" />
    <stop
       id="stop544514"
       stop-opacity="1"
       stop-color="#000000"
       offset="100%" />
  </linearGradient>
  <linearGradient
     gradientTransform="rotate(-30)"
     spreadMethod="pad"
     y2="0.30000001"
     x2="-0.1"
     y1="1.2"
     x1="0.30000001"
     id="3d_gradient3-logo-18f0ddbe-1232-4063-9225-2203434fd4e0">
    <stop
       id="stop544517"
       stop-opacity="1"
       stop-color="#ffffff"
       offset="0%" />
    <stop
       id="stop544519"
       stop-opacity="1"
       stop-color="#cccccc"
       offset="50%" />
    <stop
       id="stop544521"
       stop-opacity="1"
       stop-color="#000000"
       offset="100%" />
  </linearGradient>
  <g
     id="logo-group"
     transform="translate(-273.88419,-358.44)">
    <image
       xlink:href=""
       id="container"
       x="272"
       y="144"
       width="480"
       height="480"
       style="display:none" />
    <g
       id="logo-center">
      <image
         xlink:href=""
         id="icon_container"
         x="0"
         y="0"
         style="display:none" />
      <g
         id="slogan"
         style="font-style:oblique;font-weight:normal;font-size:32px;line-height:1;font-family:'Fira Sans Condensed';font-variant-ligatures:none;text-align:center;text-anchor:middle" />
      <g
         id="title"
         style="font-style:normal;font-weight:300;font-size:72px;line-height:1;font-family:'Montserrat Light Alt1';font-variant-ligatures:none;text-align:center;text-anchor:middle">
        <path
           id="path544540"
           style="font-style:normal;font-weight:300;font-size:72px;line-height:1;font-family:'Montserrat Light Alt1';font-variant-ligatures:none;text-align:center;text-anchor:middle"
           d="m 286.75869,-2.952 c 3.96,2.232 8.424,3.312 13.392,3.312 3.6,0 6.912,-0.576 10.008,-1.8 3.096,-1.152 5.76,-2.952 7.92,-5.256 l -2.304,-2.376 c -4.104,4.032 -9.288,6.048 -15.48,6.048 -4.248,0 -8.064,-0.936 -11.52,-2.88 -3.456,-1.872 -6.192,-4.536 -8.136,-7.92 -2.016,-3.384 -2.952,-7.2 -2.952,-11.376 0,-4.176 0.936,-7.92 2.952,-11.304 1.944,-3.384 4.68,-6.048 8.136,-7.992 3.456,-1.872 7.272,-2.88 11.52,-2.88 6.264,0 11.448,2.016 15.48,5.976 l 2.304,-2.376 c -2.16,-2.304 -4.824,-4.032 -7.848,-5.184 -3.096,-1.152 -6.48,-1.8 -10.08,-1.8 -4.968,0 -9.432,1.152 -13.392,3.312 -3.96,2.232 -7.056,5.256 -9.36,9.144 -2.304,3.888 -3.384,8.28 -3.384,13.104 0,4.896 1.08,9.216 3.384,13.104 2.304,3.888 5.4,6.984 9.36,9.144 z"
           stroke-width="0"
           stroke-linejoin="miter"
           stroke-miterlimit="2"
           fill="#224e5c"
           stroke="#224e5c"
           transform="translate(-0.1305,409.2)" />
        <path
           id="path544542"
           style="font-style:normal;font-weight:300;font-size:72px;line-height:1;font-family:'Montserrat Light Alt1';font-variant-ligatures:none;text-align:center;text-anchor:middle"
           d="m 347.47381,-50.4 h -3.672 L 320.61781,0 h 3.96 l 21.024,-46.368 21.096,46.368 h 3.96 z"
           stroke-width="0"
           stroke-linejoin="miter"
           stroke-miterlimit="2"
           fill="#224e5c"
           stroke="#224e5c"
           transform="translate(-0.1305,409.2)" />
        <path
           id="path544544"
           style="font-style:normal;font-weight:300;font-size:72px;line-height:1;font-family:'Montserrat Light Alt1';font-variant-ligatures:none;text-align:center;text-anchor:middle"
           d="m 417.96744,-21.744 c -1.872,-2.16 -4.608,-3.528 -8.208,-4.248 2.52,-0.792 4.608,-2.232 6.12,-4.248 1.512,-1.944 2.304,-4.32 2.304,-7.272 0,-4.104 -1.584,-7.272 -4.608,-9.504 -3.024,-2.232 -7.272,-3.384 -12.744,-3.384 h -21.024 v 3.168 h 20.88 c 4.392,0 7.776,0.864 10.152,2.592 2.376,1.728 3.6,4.176 3.6,7.416 0,3.312 -1.224,5.832 -3.6,7.56 -2.376,1.728 -5.76,2.52 -10.152,2.52 h -20.88 v 3.168 h 22.464 c 4.824,0 8.568,0.864 11.088,2.52 2.52,1.728 3.816,4.32 3.816,7.848 0,3.6 -1.296,6.192 -3.816,7.92 -2.52,1.728 -6.192,2.52 -11.088,2.52 h -22.464 V 0 h 22.464 c 6.12,0 10.728,-1.152 13.896,-3.456 3.096,-2.304 4.68,-5.544 4.68,-9.864 0,-3.384 -1.008,-6.192 -2.88,-8.424 z"
           stroke-width="0"
           stroke-linejoin="miter"
           stroke-miterlimit="2"
           fill="#224e5c"
           stroke="#224e5c"
           transform="translate(-0.1305,409.2)" />
        <path
           id="path544546"
           style="font-style:normal;font-weight:300;font-size:72px;line-height:1;font-family:'Montserrat Light Alt1';font-variant-ligatures:none;text-align:center;text-anchor:middle"
           d="m 452.38006,-50.4 h -3.672 L 425.52406,0 h 3.96 l 21.024,-46.368 21.096,46.368 h 3.96 z"
           stroke-width="0"
           stroke-linejoin="miter"
           stroke-miterlimit="2"
           fill="#224e5c"
           stroke="#224e5c"
           transform="translate(-0.1305,409.2)" />
        <path
           id="path544548"
           style="font-style:normal;font-weight:300;font-size:72px;line-height:1;font-family:'Montserrat Light Alt1';font-variant-ligatures:none;text-align:center;text-anchor:middle"
           d="m 522.87369,-21.744 c -1.872,-2.16 -4.608,-3.528 -8.208,-4.248 2.52,-0.792 4.608,-2.232 6.12,-4.248 1.512,-1.944 2.304,-4.32 2.304,-7.272 0,-4.104 -1.584,-7.272 -4.608,-9.504 -3.024,-2.232 -7.272,-3.384 -12.744,-3.384 h -21.024 v 3.168 h 20.88 c 4.392,0 7.776,0.864 10.152,2.592 2.376,1.728 3.6,4.176 3.6,7.416 0,3.312 -1.224,5.832 -3.6,7.56 -2.376,1.728 -5.76,2.52 -10.152,2.52 h -20.88 v 3.168 h 22.464 c 4.824,0 8.568,0.864 11.088,2.52 2.52,1.728 3.816,4.32 3.816,7.848 0,3.6 -1.296,6.192 -3.816,7.92 -2.52,1.728 -6.192,2.52 -11.088,2.52 h -22.464 V 0 h 22.464 c 6.12,0 10.728,-1.152 13.896,-3.456 3.096,-2.304 4.68,-5.544 4.68,-9.864 0,-3.384 -1.008,-6.192 -2.88,-8.424 z"
           stroke-width="0"
           stroke-linejoin="miter"
           stroke-miterlimit="2"
           fill="#224e5c"
           stroke="#224e5c"
           transform="translate(-0.1305,409.2)" />
        <path
           id="path544550"
           style="font-style:normal;font-weight:300;font-size:72px;line-height:1;font-family:'Montserrat Light Alt1';font-variant-ligatures:none;text-align:center;text-anchor:middle"
           d="m 543.67831,-5.184 c 3.528,3.744 8.496,5.544 14.904,5.544 6.336,0 11.304,-1.8 14.904,-5.544 3.528,-3.672 5.328,-9.072 5.328,-16.2 V -50.4 h -3.672 v 28.872 c 0,6.192 -1.44,10.872 -4.248,13.896 -2.88,3.096 -6.912,4.608 -12.24,4.608 -5.4,0 -9.504,-1.512 -12.312,-4.608 -2.88,-3.024 -4.248,-7.704 -4.248,-13.896 V -50.4 h -3.672 v 29.016 c 0,7.128 1.728,12.528 5.256,16.2 z"
           stroke-width="0"
           stroke-linejoin="miter"
           stroke-miterlimit="2"
           fill="#224e5c"
           stroke="#224e5c"
           transform="translate(-0.1305,409.2)" />
        <path
           id="path544552"
           style="font-style:normal;font-weight:300;font-size:72px;line-height:1;font-family:'Montserrat Light Alt1';font-variant-ligatures:none;text-align:center;text-anchor:middle"
           d="M 595.94806,-50.4 V 0 h 3.672 v -50.4 z"
           stroke-width="0"
           stroke-linejoin="miter"
           stroke-miterlimit="2"
           fill="#224e5c"
           stroke="#224e5c"
           transform="translate(-0.1305,409.2)" />
        <path
           id="path544554"
           style="font-style:normal;font-weight:300;font-size:72px;line-height:1;font-family:'Montserrat Light Alt1';font-variant-ligatures:none;text-align:center;text-anchor:middle"
           d="M 617.18244,-50.4 V 0 h 32.688 v -3.312 h -29.016 V -50.4 Z"
           stroke-width="0"
           stroke-linejoin="miter"
           stroke-miterlimit="2"
           fill="#224e5c"
           stroke="#224e5c"
           transform="translate(-0.1305,409.2)" />
        <path
           id="path544556"
           style="font-style:normal;font-weight:300;font-size:72px;line-height:1;font-family:'Montserrat Light Alt1';font-variant-ligatures:none;text-align:center;text-anchor:middle"
           d="m 702.71394,-38.16 c -2.304,-3.816 -5.472,-6.768 -9.504,-9 -4.032,-2.16 -8.712,-3.24 -13.896,-3.24 h -19.944 v 3.312 h 19.656 c 4.608,0 8.712,0.936 12.312,2.808 3.528,1.872 6.264,4.464 8.208,7.704 1.872,3.312 2.88,7.128 2.88,11.376 0,4.32 -1.008,8.064 -2.88,11.376 -1.944,3.312 -4.68,5.904 -8.208,7.776 -3.6,1.872 -7.704,2.736 -12.312,2.736 h -15.984 V -25.2 h -3.672 V 0 h 19.944 c 5.184,0 9.864,-1.08 13.896,-3.24 4.032,-2.16 7.2,-5.112 9.504,-8.928 2.232,-3.816 3.384,-8.136 3.384,-13.032 0,-4.824 -1.152,-9.144 -3.384,-12.96 z"
           stroke-width="0"
           stroke-linejoin="miter"
           stroke-miterlimit="2"
           fill="#224e5c"
           stroke="#224e5c"
           transform="translate(-0.1305,409.2)" />
        <path
           id="path544558"
           style="font-style:normal;font-weight:300;font-size:72px;line-height:1;font-family:'Montserrat Light Alt1';font-variant-ligatures:none;text-align:center;text-anchor:middle"
           d="m 721.51831,-1.512 c 3.312,1.296 6.84,1.872 10.584,1.872 3.96,0 7.344,-0.576 10.08,-1.8 2.736,-1.152 4.752,-2.808 6.048,-4.824 1.296,-2.016 2.016,-4.248 2.016,-6.696 0,-2.952 -0.792,-5.328 -2.376,-7.056 -1.584,-1.728 -3.456,-3.096 -5.616,-3.96 -2.232,-0.864 -5.184,-1.728 -8.856,-2.664 -3.312,-0.792 -5.976,-1.584 -7.848,-2.304 -1.944,-0.72 -3.528,-1.728 -4.824,-3.096 -1.296,-1.296 -1.944,-3.096 -1.944,-5.4 0,-2.952 1.152,-5.4 3.6,-7.272 2.376,-1.872 5.904,-2.808 10.584,-2.808 2.304,0 4.68,0.36 7.128,1.08 2.448,0.72 4.68,1.8 6.696,3.168 l 1.368,-2.952 c -2.016,-1.368 -4.32,-2.448 -6.984,-3.312 -2.736,-0.792 -5.472,-1.224 -8.208,-1.224 -4.032,0 -7.344,0.648 -10.008,1.8 -2.664,1.224 -4.608,2.88 -5.904,4.896 -1.296,2.016 -1.944,4.248 -1.944,6.696 0,3.024 0.72,5.472 2.304,7.272 1.584,1.8 3.456,3.096 5.688,3.96 2.232,0.864 5.184,1.8 8.928,2.664 3.24,0.792 5.832,1.512 7.776,2.232 1.872,0.72 3.528,1.8 4.824,3.096 1.296,1.368 1.944,3.168 1.944,5.4 0,2.952 -1.224,5.328 -3.672,7.128 -2.448,1.872 -6.12,2.736 -10.872,2.736 -3.312,0 -6.48,-0.576 -9.504,-1.728 -3.024,-1.152 -5.4,-2.736 -7.128,-4.608 l -1.656,2.736 c 1.872,2.016 4.464,3.672 7.776,4.968 z"
           stroke-width="0"
           stroke-linejoin="miter"
           stroke-miterlimit="2"
           fill="#224e5c"
           stroke="#224e5c"
           transform="translate(-0.1305,409.2)" />
      </g>
      <image
         xlink:href=""
         id="icon"
         x="0"
         y="0"
         style="display:none" />
    </g>
  </g>
</svg>
